<?xml version="1.0" standalone="no"?>
<!DOCTYPE svg PUBLIC "-//W3C//DTD SVG 20010904//EN"
 "http://www.w3.org/TR/2001/REC-SVG-20010904/DTD/svg10.dtd">
<svg version="1.0" xmlns="http://www.w3.org/2000/svg"
 width="512.000000pt" height="512.000000pt" viewBox="0 0 512.000000 512.000000"
 preserveAspectRatio="xMidYMid meet">
<metadata>
Created by potrace 1.14, written by Peter Selinger 2001-2017
</metadata>
<g transform="translate(0.000000,512.000000) scale(0.100000,-0.100000)"
fill="#000000" stroke="none">
<path d="M1025 5105 c-263 -41 -484 -153 -671 -339 -173 -173 -278 -369 -331
-616 -17 -80 -18 -172 -18 -1590 0 -1499 0 -1505 21 -1600 117 -522 525 -891
1048 -949 131 -15 2841 -15 2972 0 249 27 470 123 656 284 199 171 332 397
392 665 21 95 21 101 21 1600 0 1418 -1 1510 -18 1590 -53 247 -158 443 -331
616 -189 189 -406 298 -676 339 -80 13 -320 15 -1540 14 -1108 -1 -1464 -4
-1525 -14z m1583 -932 c21 -38 145 -250 274 -473 350 -602 423 -729 453 -789
76 -151 97 -390 51 -572 -22 -87 -69 -209 -80 -209 -2 0 -70 115 -151 256 -80
140 -194 337 -254 437 -59 100 -157 269 -217 375 -60 105 -114 192 -120 192
-10 0 -177 -285 -628 -1067 -61 -106 -114 -193 -117 -193 -11 0 -79 184 -94
255 -17 82 -19 203 -5 295 26 160 50 208 521 1015 97 165 207 355 245 422 38
68 72 123 76 123 4 0 25 -30 46 -67z m-1016 -1184 c-146 -355 -113 -722 92
-1027 48 -71 171 -210 178 -202 2 3 156 267 342 587 186 320 343 588 349 597
10 13 72 -87 362 -585 l349 -601 67 69 c144 151 235 331 275 540 13 68 15 122
11 233 -6 159 -29 267 -85 391 l-30 66 159 159 c129 128 161 156 169 144 105
-159 193 -404 221 -615 16 -121 6 -373 -19 -490 -79 -365 -289 -690 -591 -914
-92 -68 -300 -177 -322 -169 -8 3 -135 216 -284 472 -215 371 -272 463 -281
451 -6 -8 -130 -219 -275 -470 -189 -325 -269 -455 -282 -455 -27 0 -223 105
-311 168 -44 31 -128 104 -186 162 -214 212 -355 479 -417 785 -22 113 -25
412 -4 525 31 170 94 345 179 494 l45 78 160 -160 160 -160 -31 -73z m2592
-1537 c80 -140 146 -257 146 -262 0 -8 -426 -19 -463 -12 -14 3 -117 168 -117
189 0 5 16 25 36 44 46 43 150 176 199 253 20 32 41 54 45 50 4 -5 74 -123
154 -262z m-3043 191 c46 -70 168 -221 212 -261 l25 -24 -47 -80 c-27 -44 -55
-85 -65 -90 -15 -9 -464 -13 -473 -5 -5 6 292 527 301 527 2 0 23 -30 47 -67z"/>
</g>
</svg>
